# Blender 4.2.3 LTS
# www.blender.org
mtllib FrameCut.mtl
o Plane.001
v 4.000000 0.640000 2.000000
v 2.000000 0.640000 4.000000
v 3.999504 0.640000 2.138417
v 3.996698 0.640000 2.276805
v 3.989984 0.640000 2.415060
v 3.977954 0.640000 2.552954
v 3.959286 0.640000 2.690106
v 3.932704 0.640000 2.825948
v 3.896993 0.640000 2.959679
v 3.851041 0.640000 3.090246
v 3.793930 0.640000 3.216332
v 3.725047 0.640000 3.336393
v 3.644224 0.640000 3.448763
v 3.551826 0.640000 3.551826
v 3.448763 0.640000 3.644224
v 3.336393 0.640000 3.725047
v 3.216332 0.640000 3.793930
v 3.090246 0.640000 3.851041
v 2.959679 0.640000 3.896993
v 2.825948 0.640000 3.932704
v 2.690106 0.640000 3.959286
v 2.552954 0.640000 3.977954
v 2.415060 0.640000 3.989984
v 2.276805 0.640000 3.996698
v 2.138417 0.640000 3.999504
v 2.000000 0.640000 -4.000000
v 4.000000 0.640000 -2.000000
v 2.138417 0.640000 -3.999504
v 2.276805 0.640000 -3.996698
v 2.415060 0.640000 -3.989984
v 2.552954 0.640000 -3.977954
v 2.690106 0.640000 -3.959286
v 2.825948 0.640000 -3.932704
v 2.959679 0.640000 -3.896993
v 3.090246 0.640000 -3.851041
v 3.216332 0.640000 -3.793930
v 3.336393 0.640000 -3.725047
v 3.448763 0.640000 -3.644224
v 3.551826 0.640000 -3.551826
v 3.644224 0.640000 -3.448763
v 3.725047 0.640000 -3.336393
v 3.793930 0.640000 -3.216332
v 3.851041 0.640000 -3.090246
v 3.896993 0.640000 -2.959679
v 3.932704 0.640000 -2.825948
v 3.959286 0.640000 -2.690106
v 3.977954 0.640000 -2.552954
v 3.989984 0.640000 -2.415060
v 3.996698 0.640000 -2.276805
v 3.999504 0.640000 -2.138417
v -0.008094 0.640000 2.000007
v 1.997087 0.640000 4.000000
v -0.007239 0.640000 2.138423
v -0.004075 0.640000 2.276811
v 0.002998 0.640000 2.415065
v 0.015384 0.640000 2.552958
v 0.034408 0.640000 2.690111
v 0.061342 0.640000 2.825952
v 0.097399 0.640000 2.959682
v 0.143689 0.640000 3.090250
v 0.201128 0.640000 3.216335
v 0.270321 0.640000 3.336395
v 0.351435 0.640000 3.448765
v 0.444100 0.640000 3.551827
v 0.547403 0.640000 3.644225
v 0.659982 0.640000 3.725048
v 0.780221 0.640000 3.793930
v 0.906455 0.640000 3.851042
v 1.037142 0.640000 3.896993
v 1.170966 0.640000 3.932704
v 1.306875 0.640000 3.959286
v 1.444077 0.640000 3.977954
v 1.582001 0.640000 3.989984
v 1.720273 0.640000 3.996698
v 1.858670 0.640000 3.999504
v -0.018458 0.640000 -2.000007
v 1.976361 0.640000 -4.000000
v -0.018320 0.640000 -2.138423
v -0.015873 0.640000 -2.276811
v -0.009517 0.640000 -2.415065
v 0.002155 0.640000 -2.552958
v 0.020469 0.640000 -2.690111
v 0.046699 0.640000 -2.825952
v 0.082063 0.640000 -2.959682
v 0.127676 0.640000 -3.090250
v 0.184462 0.640000 -3.216335
v 0.253033 0.640000 -3.336395
v 0.333565 0.640000 -3.448765
v 0.425696 0.640000 -3.551827
v 0.528520 0.640000 -3.644225
v 0.640680 0.640000 -3.725048
v 0.760563 0.640000 -3.793930
v 0.886500 0.640000 -3.851042
v 1.016949 0.640000 -3.896993
v 1.150588 0.640000 -3.932704
v 1.286360 0.640000 -3.959286
v 1.423464 0.640000 -3.977954
v 1.561327 0.640000 -3.989984
v 1.699564 0.640000 -3.996698
v 1.837946 0.640000 -3.999504
v 4.000000 0.000000 2.000000
v 2.000000 0.000000 4.000000
v 3.999504 0.000000 2.138417
v 3.996698 0.000000 2.276805
v 3.989984 0.000000 2.415060
v 3.977954 0.000000 2.552954
v 3.959286 0.000000 2.690106
v 3.932704 0.000000 2.825948
v 3.896993 0.000000 2.959679
v 3.851041 0.000000 3.090246
v 3.793930 0.000000 3.216332
v 3.725047 0.000000 3.336393
v 3.644224 0.000000 3.448763
v 3.551826 0.000000 3.551826
v 3.448763 0.000000 3.644224
v 3.336393 0.000000 3.725047
v 3.216332 0.000000 3.793930
v 3.090246 0.000000 3.851041
v 2.959679 0.000000 3.896993
v 2.825948 0.000000 3.932704
v 2.690106 0.000000 3.959286
v 2.552954 0.000000 3.977954
v 2.415060 0.000000 3.989984
v 2.276805 0.000000 3.996698
v 2.138417 0.000000 3.999504
v 2.000000 0.000000 -4.000000
v 4.000000 0.000000 -2.000000
v 2.138417 0.000000 -3.999504
v 2.276805 0.000000 -3.996698
v 2.415060 0.000000 -3.989984
v 2.552954 0.000000 -3.977954
v 2.690106 0.000000 -3.959286
v 2.825948 0.000000 -3.932704
v 2.959679 0.000000 -3.896993
v 3.090246 0.000000 -3.851041
v 3.216332 0.000000 -3.793930
v 3.336393 0.000000 -3.725047
v 3.448763 0.000000 -3.644224
v 3.551826 0.000000 -3.551826
v 3.644224 0.000000 -3.448763
v 3.725047 0.000000 -3.336393
v 3.793930 0.000000 -3.216332
v 3.851041 0.000000 -3.090246
v 3.896993 0.000000 -2.959679
v 3.932704 0.000000 -2.825948
v 3.959286 0.000000 -2.690106
v 3.977954 0.000000 -2.552954
v 3.989984 0.000000 -2.415060
v 3.996698 0.000000 -2.276805
v 3.999504 0.000000 -2.138417
v -0.008094 0.000000 2.000007
v 1.997087 0.000000 4.000000
v -0.007239 0.000000 2.138423
v -0.004075 0.000000 2.276811
v 0.002998 0.000000 2.415065
v 0.015384 0.000000 2.552958
v 0.034408 0.000000 2.690111
v 0.061342 0.000000 2.825952
v 0.097399 0.000000 2.959682
v 0.143689 0.000000 3.090250
v 0.201128 0.000000 3.216335
v 0.270321 0.000000 3.336395
v 0.351435 0.000000 3.448765
v 0.444100 0.000000 3.551827
v 0.547403 0.000000 3.644225
v 0.659982 0.000000 3.725048
v 0.780221 0.000000 3.793930
v 0.906455 0.000000 3.851042
v 1.037142 0.000000 3.896993
v 1.170966 0.000000 3.932704
v 1.306875 0.000000 3.959286
v 1.444077 0.000000 3.977954
v 1.582001 0.000000 3.989984
v 1.720273 0.000000 3.996698
v 1.858670 0.000000 3.999504
v -0.018458 0.000000 -2.000007
v 1.976361 0.000000 -4.000000
v -0.018320 0.000000 -2.138423
v -0.015873 0.000000 -2.276811
v -0.009517 0.000000 -2.415065
v 0.002155 0.000000 -2.552958
v 0.020469 0.000000 -2.690111
v 0.046699 0.000000 -2.825952
v 0.082063 0.000000 -2.959682
v 0.127676 0.000000 -3.090250
v 0.184462 0.000000 -3.216335
v 0.253033 0.000000 -3.336395
v 0.333565 0.000000 -3.448765
v 0.425696 0.000000 -3.551827
v 0.528520 0.000000 -3.644225
v 0.640680 0.000000 -3.725048
v 0.760563 0.000000 -3.793930
v 0.886500 0.000000 -3.851042
v 1.016949 0.000000 -3.896993
v 1.150588 0.000000 -3.932704
v 1.286360 0.000000 -3.959286
v 1.423464 0.000000 -3.977954
v 1.561327 0.000000 -3.989984
v 1.699564 0.000000 -3.996698
v 1.837946 0.000000 -3.999504
vn -0.0000 1.0000 -0.0000
vn -0.0000 -1.0000 -0.0000
vn -1.0000 -0.0000 0.0026
vn -1.0000 -0.0000 0.0062
vn -0.9997 -0.0000 0.0229
vn -0.9987 -0.0000 0.0511
vn -0.9960 -0.0000 0.0895
vn -0.9905 -0.0000 0.1374
vn -0.9809 -0.0000 0.1945
vn -0.9655 -0.0000 0.2603
vn -0.9425 -0.0000 0.3341
vn -0.9100 -0.0000 0.4146
vn -0.8664 -0.0000 0.4993
vn -0.8108 -0.0000 0.5853
vn -0.7436 -0.0000 0.6686
vn -0.6667 -0.0000 0.7454
vn -0.5832 -0.0000 0.8123
vn -0.4971 -0.0000 0.8677
vn -0.4122 -0.0000 0.9111
vn -0.3317 -0.0000 0.9434
vn -0.2578 -0.0000 0.9662
vn -0.1919 -0.0000 0.9814
vn -0.1348 -0.0000 0.9909
vn -0.0869 -0.0000 0.9962
vn -0.0485 -0.0000 0.9988
vn -0.0203 -0.0000 0.9998
vn -0.0036 -0.0000 1.0000
vn -0.0000 -0.0000 1.0000
vn 0.0036 -0.0000 1.0000
vn 0.0203 -0.0000 0.9998
vn 0.0485 -0.0000 0.9988
vn 0.0869 -0.0000 0.9962
vn 0.1349 -0.0000 0.9909
vn 0.1920 -0.0000 0.9814
vn 0.2580 -0.0000 0.9661
vn 0.3320 -0.0000 0.9433
vn 0.4126 -0.0000 0.9109
vn 0.4976 -0.0000 0.8674
vn 0.5839 -0.0000 0.8118
vn 0.6675 -0.0000 0.7446
vn 0.7446 -0.0000 0.6675
vn 0.8118 -0.0000 0.5839
vn 0.8674 -0.0000 0.4976
vn 0.9109 -0.0000 0.4126
vn 0.9433 -0.0000 0.3320
vn 0.9661 -0.0000 0.2580
vn 0.9814 -0.0000 0.1920
vn 0.9909 -0.0000 0.1349
vn 0.9962 -0.0000 0.0869
vn 0.9988 -0.0000 0.0485
vn 0.9998 -0.0000 0.0203
vn 1.0000 -0.0000 0.0036
vn 1.0000 -0.0000 -0.0000
vn 1.0000 -0.0000 -0.0036
vn 0.9998 -0.0000 -0.0203
vn 0.9988 -0.0000 -0.0485
vn 0.9962 -0.0000 -0.0869
vn 0.9909 -0.0000 -0.1349
vn 0.9814 -0.0000 -0.1920
vn 0.9661 -0.0000 -0.2580
vn 0.9433 -0.0000 -0.3320
vn 0.9109 -0.0000 -0.4126
vn 0.8674 -0.0000 -0.4976
vn 0.8118 -0.0000 -0.5839
vn 0.7446 -0.0000 -0.6675
vn 0.6675 -0.0000 -0.7446
vn 0.5839 -0.0000 -0.8118
vn 0.4976 -0.0000 -0.8674
vn 0.4126 -0.0000 -0.9109
vn 0.3320 -0.0000 -0.9433
vn 0.2580 -0.0000 -0.9661
vn 0.1920 -0.0000 -0.9814
vn 0.1349 -0.0000 -0.9909
vn 0.0869 -0.0000 -0.9962
vn 0.0485 -0.0000 -0.9988
vn 0.0203 -0.0000 -0.9998
vn 0.0036 -0.0000 -1.0000
vn -0.0000 -0.0000 -1.0000
vn -0.0036 -0.0000 -1.0000
vn -0.0203 -0.0000 -0.9998
vn -0.0485 -0.0000 -0.9988
vn -0.0869 -0.0000 -0.9962
vn -0.1349 -0.0000 -0.9909
vn -0.1921 -0.0000 -0.9814
vn -0.2582 -0.0000 -0.9661
vn -0.3322 -0.0000 -0.9432
vn -0.4130 -0.0000 -0.9107
vn -0.4982 -0.0000 -0.8671
vn -0.5846 -0.0000 -0.8113
vn -0.6684 -0.0000 -0.7438
vn -0.7455 -0.0000 -0.6665
vn -0.8128 -0.0000 -0.5825
vn -0.8684 -0.0000 -0.4960
vn -0.9118 -0.0000 -0.4106
vn -0.9441 -0.0000 -0.3298
vn -0.9668 -0.0000 -0.2557
vn -0.9819 -0.0000 -0.1896
vn -0.9912 -0.0000 -0.1324
vn -0.9964 -0.0000 -0.0843
vn -0.9989 -0.0000 -0.0459
vn -0.9998 -0.0000 -0.0177
vn -1.0000 -0.0000 -0.0010
vt 0.498988 0.249999
vt 0.499095 0.232697
vt 0.499491 0.215399
vt 0.500375 0.198117
vt 0.501923 0.180880
vt 0.504301 0.163736
vt 0.507668 0.146756
vt 0.512175 0.130040
vt 0.517961 0.113719
vt 0.525141 0.097958
vt 0.533790 0.082951
vt 0.543930 0.068904
vt 0.555513 0.056022
vt 0.568425 0.044472
vt 0.582498 0.034369
vt 0.597528 0.025759
vt 0.613307 0.018620
vt 0.629643 0.012876
vt 0.646371 0.008412
vt 0.663360 0.005089
vt 0.680510 0.002756
vt 0.697750 0.001252
vt 0.715034 0.000413
vt 0.732334 0.000062
vt 0.749636 0.000000
vt 0.750000 0.000000
vt 0.767302 0.000062
vt 0.784601 0.000413
vt 0.801883 0.001252
vt 0.819119 0.002756
vt 0.836263 0.005089
vt 0.853243 0.008412
vt 0.869960 0.012876
vt 0.886281 0.018620
vt 0.902042 0.025759
vt 0.917049 0.034369
vt 0.931095 0.044472
vt 0.943978 0.056022
vt 0.955528 0.068905
vt 0.965631 0.082951
vt 0.974241 0.097958
vt 0.981380 0.113719
vt 0.987124 0.130040
vt 0.991588 0.146757
vt 0.994911 0.163737
vt 0.997244 0.180881
vt 0.998748 0.198117
vt 0.999587 0.215399
vt 0.999938 0.232698
vt 1.000000 0.250000
vt 1.000000 0.750000
vt 0.999938 0.767302
vt 0.999587 0.784601
vt 0.998748 0.801883
vt 0.997244 0.819119
vt 0.994911 0.836263
vt 0.991588 0.853243
vt 0.987124 0.869960
vt 0.981380 0.886281
vt 0.974241 0.902042
vt 0.965631 0.917049
vt 0.955528 0.931095
vt 0.943978 0.943978
vt 0.931095 0.955528
vt 0.917049 0.965631
vt 0.902042 0.974241
vt 0.886281 0.981380
vt 0.869960 0.987124
vt 0.853243 0.991588
vt 0.836263 0.994911
vt 0.819119 0.997244
vt 0.801883 0.998748
vt 0.784601 0.999587
vt 0.767302 0.999938
vt 0.750000 1.000000
vt 0.747045 1.000000
vt 0.729743 0.999938
vt 0.712445 0.999587
vt 0.695166 0.998748
vt 0.677933 0.997244
vt 0.660795 0.994911
vt 0.643823 0.991588
vt 0.627119 0.987124
vt 0.610813 0.981380
vt 0.595070 0.974241
vt 0.580085 0.965631
vt 0.566065 0.955528
vt 0.553212 0.943978
vt 0.541696 0.931096
vt 0.531629 0.917049
vt 0.523058 0.902042
vt 0.515960 0.886281
vt 0.510258 0.869960
vt 0.505837 0.853244
vt 0.502559 0.836264
vt 0.500269 0.819120
vt 0.498810 0.801883
vt 0.498016 0.784601
vt 0.497710 0.767303
vt 0.497693 0.750001
s 0
f 51/1/1 53/2/1 54/3/1 55/4/1 56/5/1 57/6/1 58/7/1 59/8/1 60/9/1 61/10/1 62/11/1 63/12/1 64/13/1 65/14/1 66/15/1 67/16/1 68/17/1 69/18/1 70/19/1 71/20/1 72/21/1 73/22/1 74/23/1 75/24/1 52/25/1 2/26/1 25/27/1 24/28/1 23/29/1 22/30/1 21/31/1 20/32/1 19/33/1 18/34/1 17/35/1 16/36/1 15/37/1 14/38/1 13/39/1 12/40/1 11/41/1 10/42/1 9/43/1 8/44/1 7/45/1 6/46/1 5/47/1 4/48/1 3/49/1 1/50/1 27/51/1 50/52/1 49/53/1 48/54/1 47/55/1 46/56/1 45/57/1 44/58/1 43/59/1 42/60/1 41/61/1 40/62/1 39/63/1 38/64/1 37/65/1 36/66/1 35/67/1 34/68/1 33/69/1 32/70/1 31/71/1 30/72/1 29/73/1 28/74/1 26/75/1 77/76/1 100/77/1 99/78/1 98/79/1 97/80/1 96/81/1 95/82/1 94/83/1 93/84/1 92/85/1 91/86/1 90/87/1 89/88/1 88/89/1 87/90/1 86/91/1 85/92/1 84/93/1 83/94/1 82/95/1 81/96/1 80/97/1 79/98/1 78/99/1 76/100/1
f 151/1/2 176/100/2 178/99/2 179/98/2 180/97/2 181/96/2 182/95/2 183/94/2 184/93/2 185/92/2 186/91/2 187/90/2 188/89/2 189/88/2 190/87/2 191/86/2 192/85/2 193/84/2 194/83/2 195/82/2 196/81/2 197/80/2 198/79/2 199/78/2 200/77/2 177/76/2 126/75/2 128/74/2 129/73/2 130/72/2 131/71/2 132/70/2 133/69/2 134/68/2 135/67/2 136/66/2 137/65/2 138/64/2 139/63/2 140/62/2 141/61/2 142/60/2 143/59/2 144/58/2 145/57/2 146/56/2 147/55/2 148/54/2 149/53/2 150/52/2 127/51/2 101/50/2 103/49/2 104/48/2 105/47/2 106/46/2 107/45/2 108/44/2 109/43/2 110/42/2 111/41/2 112/40/2 113/39/2 114/38/2 115/37/2 116/36/2 117/35/2 118/34/2 119/33/2 120/32/2 121/31/2 122/30/2 123/29/2 124/28/2 125/27/2 102/26/2 152/25/2 175/24/2 174/23/2 173/22/2 172/21/2 171/20/2 170/19/2 169/18/2 168/17/2 167/16/2 166/15/2 165/14/2 164/13/2 163/12/2 162/11/2 161/10/2 160/9/2 159/8/2 158/7/2 157/6/2 156/5/2 155/4/2 154/3/2 153/2/2
f 51/1/3 76/100/3 176/100/3 151/1/3
f 53/2/4 51/1/4 151/1/4 153/2/4
f 54/3/5 53/2/5 153/2/5 154/3/5
f 55/4/6 54/3/6 154/3/6 155/4/6
f 56/5/7 55/4/7 155/4/7 156/5/7
f 57/6/8 56/5/8 156/5/8 157/6/8
f 58/7/9 57/6/9 157/6/9 158/7/9
f 59/8/10 58/7/10 158/7/10 159/8/10
f 60/9/11 59/8/11 159/8/11 160/9/11
f 61/10/12 60/9/12 160/9/12 161/10/12
f 62/11/13 61/10/13 161/10/13 162/11/13
f 63/12/14 62/11/14 162/11/14 163/12/14
f 64/13/15 63/12/15 163/12/15 164/13/15
f 65/14/16 64/13/16 164/13/16 165/14/16
f 66/15/17 65/14/17 165/14/17 166/15/17
f 67/16/18 66/15/18 166/15/18 167/16/18
f 68/17/19 67/16/19 167/16/19 168/17/19
f 69/18/20 68/17/20 168/17/20 169/18/20
f 70/19/21 69/18/21 169/18/21 170/19/21
f 71/20/22 70/19/22 170/19/22 171/20/22
f 72/21/23 71/20/23 171/20/23 172/21/23
f 73/22/24 72/21/24 172/21/24 173/22/24
f 74/23/25 73/22/25 173/22/25 174/23/25
f 75/24/26 74/23/26 174/23/26 175/24/26
f 52/25/27 75/24/27 175/24/27 152/25/27
f 2/26/28 52/25/28 152/25/28 102/26/28
f 25/27/29 2/26/29 102/26/29 125/27/29
f 24/28/30 25/27/30 125/27/30 124/28/30
f 23/29/31 24/28/31 124/28/31 123/29/31
f 22/30/32 23/29/32 123/29/32 122/30/32
f 21/31/33 22/30/33 122/30/33 121/31/33
f 20/32/34 21/31/34 121/31/34 120/32/34
f 19/33/35 20/32/35 120/32/35 119/33/35
f 18/34/36 19/33/36 119/33/36 118/34/36
f 17/35/37 18/34/37 118/34/37 117/35/37
f 16/36/38 17/35/38 117/35/38 116/36/38
f 15/37/39 16/36/39 116/36/39 115/37/39
f 14/38/40 15/37/40 115/37/40 114/38/40
f 13/39/41 14/38/41 114/38/41 113/39/41
f 12/40/42 13/39/42 113/39/42 112/40/42
f 11/41/43 12/40/43 112/40/43 111/41/43
f 10/42/44 11/41/44 111/41/44 110/42/44
f 9/43/45 10/42/45 110/42/45 109/43/45
f 8/44/46 9/43/46 109/43/46 108/44/46
f 7/45/47 8/44/47 108/44/47 107/45/47
f 6/46/48 7/45/48 107/45/48 106/46/48
f 5/47/49 6/46/49 106/46/49 105/47/49
f 4/48/50 5/47/50 105/47/50 104/48/50
f 3/49/51 4/48/51 104/48/51 103/49/51
f 1/50/52 3/49/52 103/49/52 101/50/52
f 27/51/53 1/50/53 101/50/53 127/51/53
f 50/52/54 27/51/54 127/51/54 150/52/54
f 49/53/55 50/52/55 150/52/55 149/53/55
f 48/54/56 49/53/56 149/53/56 148/54/56
f 47/55/57 48/54/57 148/54/57 147/55/57
f 46/56/58 47/55/58 147/55/58 146/56/58
f 45/57/59 46/56/59 146/56/59 145/57/59
f 44/58/60 45/57/60 145/57/60 144/58/60
f 43/59/61 44/58/61 144/58/61 143/59/61
f 42/60/62 43/59/62 143/59/62 142/60/62
f 41/61/63 42/60/63 142/60/63 141/61/63
f 40/62/64 41/61/64 141/61/64 140/62/64
f 39/63/65 40/62/65 140/62/65 139/63/65
f 38/64/66 39/63/66 139/63/66 138/64/66
f 37/65/67 38/64/67 138/64/67 137/65/67
f 36/66/68 37/65/68 137/65/68 136/66/68
f 35/67/69 36/66/69 136/66/69 135/67/69
f 34/68/70 35/67/70 135/67/70 134/68/70
f 33/69/71 34/68/71 134/68/71 133/69/71
f 32/70/72 33/69/72 133/69/72 132/70/72
f 31/71/73 32/70/73 132/70/73 131/71/73
f 30/72/74 31/71/74 131/71/74 130/72/74
f 29/73/75 30/72/75 130/72/75 129/73/75
f 28/74/76 29/73/76 129/73/76 128/74/76
f 26/75/77 28/74/77 128/74/77 126/75/77
f 77/76/78 26/75/78 126/75/78 177/76/78
f 100/77/79 77/76/79 177/76/79 200/77/79
f 99/78/80 100/77/80 200/77/80 199/78/80
f 98/79/81 99/78/81 199/78/81 198/79/81
f 97/80/82 98/79/82 198/79/82 197/80/82
f 96/81/83 97/80/83 197/80/83 196/81/83
f 95/82/84 96/81/84 196/81/84 195/82/84
f 94/83/85 95/82/85 195/82/85 194/83/85
f 93/84/86 94/83/86 194/83/86 193/84/86
f 92/85/87 93/84/87 193/84/87 192/85/87
f 91/86/88 92/85/88 192/85/88 191/86/88
f 90/87/89 91/86/89 191/86/89 190/87/89
f 89/88/90 90/87/90 190/87/90 189/88/90
f 88/89/91 89/88/91 189/88/91 188/89/91
f 87/90/92 88/89/92 188/89/92 187/90/92
f 86/91/93 87/90/93 187/90/93 186/91/93
f 85/92/94 86/91/94 186/91/94 185/92/94
f 84/93/95 85/92/95 185/92/95 184/93/95
f 83/94/96 84/93/96 184/93/96 183/94/96
f 82/95/97 83/94/97 183/94/97 182/95/97
f 81/96/98 82/95/98 182/95/98 181/96/98
f 80/97/99 81/96/99 181/96/99 180/97/99
f 79/98/100 80/97/100 180/97/100 179/98/100
f 78/99/101 79/98/101 179/98/101 178/99/101
f 76/100/102 78/99/102 178/99/102 176/100/102
